{"title":"Poltergeist {2015} HDTS 72OP X264 AC3 MRG","uid":11997864,"size":3078342562,"categoryP":"video","categoryS":"movies","magnet":"?xt=urn:btih:4b019fcec7a2e12f9361c2c047eae62d606dafa5&amp;dn=Poltergeist+%7B2015%7D+HDTS+72OP+X264+AC3+MRG&amp;tr=udp%3A%2F%2Ftracker.openbittorrent.com%3A80&amp;tr=udp%3A%2F%2Fopen.demonii.com%3A1337&amp;tr=udp%3A%2F%2Ftracker.coppersurfer.tk%3A6969&amp;tr=udp%3A%2F%2Fexodus.desync.com%3A6969","seeders":4,"leechers":0,"uploader":"makintos13","files":12,"time":1433704945,"description":"screens:\n &lt;a href=&quot;\nhttp://imgmak.com/Un&quot; rel=&quot;nofollow&quot; target=&quot;_NEW&quot;&gt;\nhttp://imgmak.com/Un&lt;/a&gt;\n &lt;a href=&quot;\nhttp://imgmak.com/Ur&quot; rel=&quot;nofollow&quot; target=&quot;_NEW&quot;&gt;\nhttp://imgmak.com/Ur&lt;/a&gt;\n &lt;a href=&quot;\nhttp://imgmak.com/UB&quot; rel=&quot;nofollow&quot; target=&quot;_NEW&quot;&gt;\nhttp://imgmak.com/UB&lt;/a&gt;\n &lt;a href=&quot;\nhttp://imgmak.com/UI&quot; rel=&quot;nofollow&quot; target=&quot;_NEW&quot;&gt;\nhttp://imgmak.com/UI&lt;/a&gt; \n\n:::::::::::::::::::::::::::;\n\nPoltergeist {2015} NEW HDTS 72OP X264 AC3 MRG.mkv\nAudio : MrSeeN-SiMPLE...TY\nVideo : ???\nFormat : Matroska\nFormat version : Version 4 / Version 2\nFile size : 2.86 GiB\nDuration : 1h 27mn\nOverall bit rate mode : Variable\nOverall bit rate : 4 665 Kbps\nMovie name : Poltergeist {2015} NEW HDTS 72OP X264 AC3 MRG\nEncoded date : UTC 2015-06-07 14:46:12\n\n\nVideo\nID : 1\nFormat : AVC\nFormat/Info : Advanced Video Codec\nFormat profile : &lt;a class=&quot;__cf_email__&quot; href=&quot;/cdn-cgi/l/email-protection&quot; data-cfemail=&quot;a2efc3cbcce2ee918c93&quot;&gt;[email&amp;#160;protected]&lt;/a&gt;&lt;script data-cfhash='f9e31' type=&quot;text/javascript&quot;&gt;\n/* &lt;![CDATA[ */!function(){try{var t=&quot;currentScript&quot;in document?document.currentScript:function(){for(var t=document.getElementsByTagName(&quot;script&quot;),e=t.length;e--;)if(t[e].getAttribute(&quot;data-cfhash&quot;))return t[e]}();if(t&amp;&amp;t.previousSibling){var e,r,n,i,c=t.previousSibling,a=c.getAttribute(&quot;data-cfemail&quot;);if(a){for(e=&quot;&quot;,r=parseInt(a.substr(0,2),16),n=2;a.length-n;n+=2)i=parseInt(a.substr(n,2),16)^r,e+=String.fromCharCode(i);e=document.createTextNode(e),c.parentNode.replaceChild(e,c)}t.parentNode.removeChild(t);}}catch(u){}}()/* ]]&gt; */&lt;/script&gt;\nFormat settings, CABAC : Yes\nFormat settings, ReFrames : 4 frames\nFormat settings, GOP : M=4, N=15\nCodec ID : V_MPEG4/ISO/AVC\nDuration : 1h 27mn\nBit rate mode : Variable\nBit rate : 4 444 Kbps\nMaximum bit rate : 5 000 Kbps\nWidth : 1 280 pixels\nHeight : 566 pixels\nDisplay aspect ratio : 2.25:1\nFrame rate mode : Constant\nFrame rate : 29.970 fps\nStandard : NTSC\nColor space : YUV\nChroma subsampling : 4:2:0\nBit depth : 8 bits\nScan type : Progressive\nBits/(Pixel*Frame) : 0.205\nStream size : 2.73 GiB (95%)\nDefault : Yes\nForced : No\n\n\nAudio\nID : 2\nFormat : AC-3\nFormat/Info : Audio Coding 3\nMode extension : CM (complete main)\nFormat settings, Endianness : Big\nCodec ID : A_AC3\nDuration : 1h 27mn\nBit rate mode : Constant\nBit rate : 128 Kbps\nChannel(s) : 2 channels\nChannel positions : Front: L R\nSampling rate : 44.1 KHz\nCompression mode : Lossy\nDelay relative to video : -167ms\nStream size : 80.5 MiB (3%)\nDefault : Yes\nForced : No","torrent":{"xt":"urn:btih:4b019fcec7a2e12f9361c2c047eae62d606dafa5","amp;dn":"Poltergeist+%7B2015%7D+HDTS+72OP+X264+AC3+MRG","amp;tr":["udp%3A%2F%2Ftracker.openbittorrent.com%3A80","udp%3A%2F%2Fopen.demonii.com%3A1337","udp%3A%2F%2Ftracker.coppersurfer.tk%3A6969","udp%3A%2F%2Fexodus.desync.com%3A6969"],"infoHash":"4b019fcec7a2e12f9361c2c047eae62d606dafa5","infoHashBuffer":{"type":"Buffer","data":[75,1,159,206,199,162,225,47,147,97,194,192,71,234,230,45,96,109,175,165]},"announce":[],"urlList":[]}}